# xmcd
#
# Track frame offsets:
#	150
#	15078
#	33108
#	49152
#	66275
#	80556
#	92908
#	110313
#	128591
#	141553
#	157391
#	167759
#	185804
#	186745
#	187428
#	188077
#	188734
#	189533
#	190221
#	190982
#	191690
#	192555
#	193473
#	194324
#	194967
#	195648
#	196309
#	197132
#	197840
#	198584
#	199588
#	200300
#	200994
#	201739
#	202604
#	203347
#	204130
#	204914
#	205822
#	206701
#	207705
#	208407
#	209150
#	209870
#	210705
#	211451
#	212208
#	212961
#	213841
#	214810
#	215565
#	216277
#	216985
#	217819
#	218597
#	219382
#	220233
#	221150
#	221858
#	222553
#	223198
#	223983
#	224667
#	225420
#	226142
#
# Disc length: 3022 seconds
#
# Revision: 0
# Processed by: cddbd v1.5.2PL0 Copyright (c) Steve Scherf et al.
# Submitted via: audiograbber 1.83.01
#
DISCID=8e0bcc41
DTITLE=Various Artist - CDX Volume 671 (November 26, 2018)
DYEAR=2018
DGENRE=Country
TTITLE0=Luke Combs - Beautiful Crazy
TTITLE1=Brad Paisley - Bucked Off
TTITLE2=Devin Dawson - Dark Horse
TTITLE3=Mitchell Tenpenny - Drunk Me (acoustic)
TTITLE4=Dylan Scott - Nothing To Do Town
TTITLE5=Haley and Michaels - Taking Off
TTITLE6=Emily Vanderwerken - It's A Shame
TTITLE7=TG Sheppard - I Wanna Live Like Elvis
TTITLE8=Chris Janson - It Is Christmas
TTITLE9=Wilson Brothers Band - Christmas In Dixie
TTITLE10=Elvis Carden - Christmas Lovin'
TTITLE11=Irish Bernadette - Grandma Got Run Over By A Reindeer
TTITLE12=Calvin Lee - Liner: My New Single
TTITLE13=Calvin Lee - Liner: Best Country
TTITLE14=Calvin Lee - Liner: Kickin' Country
TTITLE15=Calvin Lee - Liner: Hometown Country
TTITLE16=Calvin Lee - Liner: Super Country
TTITLE17=Calvin Lee - LIner: Today's Hot Country
TTITLE18=Calvin Lee - Liner: Best In Today's Country
TTITLE19=Calvin Lee - LIner: The Country You Love
TTITLE20=Calvin Lee - Liner: Howlin' Country
TTITLE21=Joe Schmidt - Liner: My New Single
TTITLE22=Joe Schmidt - Liner: My New Single
TTITLE23=Joe Schmidt - Liner: Best Country
TTITLE24=Joe Schmidt - Liner: Kickin' Country
TTITLE25=Joe Schmidt - Liner: Hometown Country
TTITLE26=Joe Schmidt - Liner: Super Country
TTITLE27=Joe Schmidt - Liner: Hot Country
TTITLE28=Joe Schmidt - Liner: Today's Best Country
TTITLE29=Lisa Bouchelle - Liner: My New Single
TTITLE30=Lisa Bouchelle - Liner: Best Country
TTITLE31=Lisa Bouchelle - Liner: Kickin' Country
TTITLE32=Lisa Bouchelle - Liner: Hometown Country
TTITLE33=Lisa Bouchelle - Liner: Super Country
TTITLE34=Lisa Bouchelle - Liner: Hot Country
TTITLE35=Lisa Bouchelle - Liner: Today's Country
TTITLE36=Lisa Bouchelle - LIner: The Country You Love
TTITLE37=Lisa Bouchelle - Liner: Howlin' Country
TTITLE38=Red Marlow - Liner: My New Single
TTITLE39=Red Marlow - Liner: My New Single
TTITLE40=Red Marlow - Liner: Best Country
TTITLE41=Red Marlow - Liner: Kickin' Country
TTITLE42=Red Marlow - Liner: Hometown Country
TTITLE43=Red Marlow - Liner: Super Country
TTITLE44=Red Marlow - Liner: Hot Country
TTITLE45=Red Marlow - Liner: Today's Country
TTITLE46=Red Marlow - LIner: The Country You Love
TTITLE47=Red Marlow - Liner: Howlin' Country
TTITLE48=Rivershine - Liner: My New Single
TTITLE49=Rivershine - Liner: Best Country
TTITLE50=Rivershine - Liner: Kickin' Country
TTITLE51=Rivershine - Liner: Hometown Country
TTITLE52=Rivershine - Liner: Super Country
TTITLE53=Rivershine - Liner: Hot Country
TTITLE54=Rivershine - Liner: Today's Country
TTITLE55=Rivershine - Liner: Howlin' Country
TTITLE56=Ryan Sims - Liner: My New Single
TTITLE57=Ryan Sims - Liner: Best Country
TTITLE58=Ryan Sims - Liner: Kickin' Country
TTITLE59=Ryan Sims - Liner: Hometown Country
TTITLE60=Ryan Sims - Liner: Super Country
TTITLE61=Ryan Sims - Liner: Hot Country
TTITLE62=Ryan Sims - Liner: Today's Country
TTITLE63=Ryan Sims - LIner: The Country You Love
TTITLE64=Ryan Sims - Liner: Howlin' Country
EXTD=
EXTT0=
EXTT1=
EXTT2=
EXTT3=
EXTT4=
EXTT5=
EXTT6=
EXTT7=
EXTT8=
EXTT9=
EXTT10=
EXTT11=
EXTT12=
EXTT13=
EXTT14=
EXTT15=
EXTT16=
EXTT17=
EXTT18=
EXTT19=
EXTT20=
EXTT21=
EXTT22=
EXTT23=
EXTT24=
EXTT25=
EXTT26=
EXTT27=
EXTT28=
EXTT29=
EXTT30=
EXTT31=
EXTT32=
EXTT33=
EXTT34=
EXTT35=
EXTT36=
EXTT37=
EXTT38=
EXTT39=
EXTT40=
EXTT41=
EXTT42=
EXTT43=
EXTT44=
EXTT45=
EXTT46=
EXTT47=
EXTT48=
EXTT49=
EXTT50=
EXTT51=
EXTT52=
EXTT53=
EXTT54=
EXTT55=
EXTT56=
EXTT57=
EXTT58=
EXTT59=
EXTT60=
EXTT61=
EXTT62=
EXTT63=
EXTT64=
PLAYORDER=
